<svg width="229" height="73" viewBox="0 0 229 73" xmlns="http://www.w3.org/2000/svg" xmlns:xlink="http://www.w3.org/1999/xlink"><title>8EB872CC-73EC-4EBA-9298-1C07CBAC2B8D</title><defs><path id="a" d="M156.357 28.283H.069V.11h156.288v28.173z"/><path id="c" d="M0 70.552V.411h96.132v70.141H0z"/></defs><g fill="none" fill-rule="evenodd"><path d="M63.612 58.77H225.61" stroke="#D9222A" stroke-width="2"/><path d="M183.662 63.972c.377-1.47-.59-1.996-1.196-2.001l-4.354-.008-2.116 8.177 3.646.007c1.523.004 2.762-.383 3.222-2.177.298-1.14-.135-1.89-.972-2.002l.006-.026c.94-.256 1.509-1.002 1.764-1.97m-2.812 3.674c-.226.883-.838.895-1.464.895l-.875-.004.45-1.738.968.003c.554 0 1.14 0 .921.844m.641-3.406c-.261 1.018-.967.952-1.547.952l-.568-.002.42-1.617h.736c.473.001 1.132.001.96.667M206.056 61.963l-3.933-.005-2.119 8.179 3.481.005c2.395.005 3.99-1.71 4.604-4.09.894-3.457-1.01-4.09-2.033-4.09m-.16 4.085c-.304 1.201-1.177 2.34-2.387 2.34l-.951-.004 1.203-4.667h1.099c1.17.003 1.434.813 1.036 2.33M65.34 61.963l-3.933-.005-2.12 8.179 3.48.005c2.402.005 3.995-1.71 4.607-4.09.896-3.457-1.009-4.09-2.034-4.09m-.158 4.085c-.306 1.201-1.18 2.34-2.388 2.34l-.952-.004 1.21-4.667h1.093c1.172.003 1.432.813 1.037 2.33M214.557 65.156l-.451 1.755-2.914-.007-.383 1.484 3.467.008-.457 1.746-5.656-.005 2.114-8.176 5.657.01-.448 1.75-3.473-.01-.364 1.442 2.908.003M141.917 61.958l2.194.003-.79 3.038 2.79.006.786-3.042 2.193.004-2.111 8.175-2.196-.002.875-3.38-2.786-.005-.872 3.382-2.195-.004 2.112-8.175M130.901 61.96l2.194.003-2.112 8.177-2.194-.003 2.112-8.176M217.218 61.96l3.717.007c1.838.004 2.323.877 1.905 2.494-.256.969-.994 1.666-2.06 2.067.196 1.23.363 2.514.59 3.62l-2.36-.006c-.08-1.542-.16-3.1-.36-4.586.19.039.36.062.528.062.603 0 1.334-.27 1.537-1.066.226-.873-.448-.873-.765-.873h-1.077l-1.668 6.461-2.095-.003 2.108-8.176M194.774 61.948l3.717.01c1.84.003 2.326.875 1.904 2.493-.249.969-.993 1.665-2.06 2.067.196 1.23.366 2.513.595 3.622l-2.36-.003c-.082-1.548-.16-3.108-.362-4.592.188.04.361.068.533.068.602 0 1.328-.272 1.534-1.07.225-.868-.456-.868-.77-.868l-1.072-.005-1.672 6.463-2.098-.004 2.11-8.18M102.114 61.967l3.716.01c1.84 0 2.325.872 1.905 2.488-.249.973-.993 1.665-2.056 2.068.194 1.229.36 2.516.59 3.623l-2.361-.005c-.08-1.546-.164-3.106-.363-4.593.191.042.363.068.531.068.603 0 1.326-.272 1.536-1.064.223-.874-.455-.874-.767-.874l-1.076-.003-1.668 6.462-2.099-.005 2.112-8.175M167.196 61.958l6.524.01-.454 1.753-2.158-.002-1.66 6.421-2.194-.003 1.66-6.426-2.169-.003.45-1.75M134.23 61.963l6.526.013-.453 1.755-2.162-.004-1.658 6.424-2.197-.004 1.666-6.426-2.174-.002.451-1.756M85.57 61.96l6.523.011-.452 1.756-2.16-.006-1.66 6.42h-2.194l1.663-6.422-2.172-.003.451-1.755M161.537 61.967l-1.21 4.659c-.3 1.178-.2 1.874.794 1.874.99.007 1.452-.692 1.758-1.87l1.204-4.659 2.191.005-1.43 5.544c-.51 1.97-2.142 2.775-4.19 2.775-2.045-.005-3.252-.818-2.745-2.79l1.431-5.542 2.197.004M129.571 61.967l-4.066 8.175-2.669-.002.406-5.058h-.02l-2.215 5.055-2.544-.004.26-8.185 2.081.006-.325 5.737h.023l2.443-5.733 2.356.003-.501 5.74h.024l2.724-5.738 2.023.004M82.464 70.17c-.642.06-1.531.178-1.927.178-2.469-.004-3.771-1.526-3.066-4.25.698-2.708 2.78-4.229 5.258-4.222.602 0 1.215.1 1.792.225l-.327 1.897c-.494-.182-1.001-.332-1.565-.332-1.69-.005-2.69 1.357-2.972 2.45-.322 1.264.007 2.441 1.344 2.441.857.003 1.513-.155 2.154-.326l-.691 1.938M107.835 67.963c.468.32 1.069.555 1.676.555.352 0 .983-.064 1.135-.637.268-1.045-2.17-1.878-1.63-3.967.25-.95 1.189-2.114 3.109-2.114a7.604 7.604 0 0 1 1.788.235l-.262 1.937a2.782 2.782 0 0 0-1.43-.418c-.33 0-.956.157-1.066.583-.316 1.204 2.193 1.774 1.644 3.906-.285 1.105-1.286 2.228-3.227 2.228-.703-.005-1.379-.138-2.02-.284l.283-2.024M222.907 67.963c.469.32 1.065.555 1.675.555.352 0 .984-.064 1.133-.637.274-1.045-2.164-1.878-1.626-3.967.249-.95 1.185-2.114 3.108-2.114a7.553 7.553 0 0 1 1.783.235l-.26 1.937a2.768 2.768 0 0 0-1.428-.418c-.333 0-.957.157-1.064.583-.314 1.204 2.19 1.774 1.642 3.906-.285 1.105-1.283 2.228-3.229 2.228-.7-.005-1.379-.138-2.013-.284l.279-2.024M73.537 61.856c-2.477-.005-4.562 1.51-5.264 4.22-.706 2.72.596 4.243 3.072 4.25 2.477.006 4.558-1.513 5.265-4.236.696-2.71-.606-4.231-3.073-4.234m.874 4.242c-.325 1.263-1.278 2.439-2.605 2.439-1.32-.006-1.667-1.184-1.344-2.444.328-1.265 1.28-2.455 2.61-2.447 1.325 0 1.667 1.188 1.34 2.452M96.548 61.856c-2.471-.005-4.558 1.51-5.261 4.22-.701 2.72.599 4.243 3.074 4.25 2.473.006 4.552-1.513 5.257-4.236.704-2.71-.597-4.231-3.07-4.234m.88 4.242c-.33 1.263-1.283 2.439-2.605 2.439-1.329-.006-1.67-1.184-1.343-2.444.325-1.265 1.28-2.455 2.603-2.447 1.33 0 1.667 1.188 1.345 2.452M154.219 61.856c-2.472-.005-4.56 1.51-5.262 4.22-.701 2.72.599 4.243 3.074 4.25 2.471.006 4.554-1.513 5.266-4.236.697-2.71-.606-4.231-3.078-4.234m.878 4.242c-.328 1.263-1.28 2.439-2.604 2.439-1.327-.006-1.668-1.184-1.343-2.444.327-1.265 1.28-2.455 2.605-2.447 1.33 0 1.666 1.188 1.342 2.452M189.443 61.856c-2.472-.005-4.558 1.51-5.26 4.22-.705 2.72.596 4.243 3.073 4.25 2.472.006 4.55-1.513 5.261-4.236.7-2.71-.604-4.231-3.074-4.234m.881 4.242c-.329 1.263-1.284 2.439-2.606 2.439-1.327-.006-1.67-1.184-1.345-2.444.328-1.265 1.28-2.455 2.606-2.447 1.326 0 1.664 1.188 1.345 2.452M136.664 47.975l-2.681-.002c-1.836 2.795-3.652 5.62-5.565 8.334l2.448.003 1.466-2.4 2.618.006.142 2.401 2.375.004c-.282-2.762-.626-5.605-.803-8.346m-3.353 4.187l1.49-2.389h.022l.152 2.393-1.664-.004M85.773 48.028l-4.01-.006-2.159 8.34 3.542.009c2.452.001 4.08-1.744 4.703-4.17.912-3.529-1.035-4.173-2.076-4.173m-.157 4.17c-.319 1.224-1.205 2.387-2.444 2.385h-.968l1.228-4.769h1.122c1.195.006 1.46.828 1.062 2.383M94.268 51.247l-.463 1.792-2.97-.011-.388 1.517 3.536.006-.464 1.787-5.775-.01 2.16-8.34 5.773.005-.462 1.791-3.537-.009-.379 1.468 2.97.004M79.201 51.262l-.462 1.787-2.97-.006-.392 1.51 3.538.013-.463 1.782-5.773-.004L74.838 48l5.771.01-.464 1.787-3.535-.007-.378 1.466 2.97.005M103.796 48.024l2.24.004-2.157 8.344-2.239-.001 2.156-8.347M68.126 47.988l-.142 5.24h.024l2.633-5.24 2.927.009-2.158 8.347-1.854-.006 1.546-5.98h-.021l-3.018 5.978-1.902-.008.115-5.968h-.024l-1.54 5.965h-1.704l2.154-8.342 2.964.005M140.34 47.97l2.646.003 1.326 5.431h.02l1.404-5.425 1.96.004-2.157 8.342-2.613-.004-1.382-5.334h-.022l-1.374 5.33-1.961-.005 2.153-8.342M107.441 47.97l2.642.003 1.326 5.431h.017l1.402-5.425 1.964.004-2.157 8.342-2.609-.004-1.383-5.334h-.02l-1.378 5.33-1.96-.005 2.156-8.342M100.44 56.338c-.656.065-1.563.183-1.967.183-2.526-.003-3.846-1.554-3.132-4.33.716-2.769 2.839-4.313 5.365-4.309.62 0 1.24.097 1.83.225l-.336 1.94c-.497-.188-1.018-.34-1.593-.34-1.722-.002-2.743 1.382-3.03 2.498-.335 1.285.007 2.491 1.367 2.491.876.004 1.547-.158 2.196-.336l-.7 1.978M114.332 54.146c.478.324 1.086.567 1.706.567.365 0 1.006-.063 1.16-.65.27-1.061-2.215-1.918-1.662-4.047.253-.975 1.21-2.16 3.169-2.156.639 0 1.262.102 1.824.243l-.264 1.972a2.794 2.794 0 0 0-1.458-.425c-.344-.003-.978.159-1.092.6-.318 1.223 2.241 1.803 1.682 3.98-.291 1.125-1.318 2.276-3.304 2.275-.708-.005-1.397-.143-2.051-.294l.29-2.065M123.642 54.146c.487.324 1.093.567 1.713.567.36 0 1.005-.063 1.156-.65.277-1.061-2.209-1.918-1.658-4.047.25-.975 1.208-2.16 3.166-2.156.64 0 1.267.102 1.823.243l-.266 1.972a2.766 2.766 0 0 0-1.453-.425c-.344-.003-.98.159-1.092.6-.317 1.223 2.242 1.803 1.677 3.98-.29 1.125-1.316 2.276-3.296 2.275-.713-.005-1.399-.143-2.053-.294l.283-2.065M147.374 54.146c.48.324 1.093.567 1.713.567.36 0 1.003-.063 1.156-.65.273-1.061-2.21-1.918-1.665-4.047.256-.975 1.213-2.16 3.17-2.156.637 0 1.266.102 1.823.243l-.26 1.972a2.801 2.801 0 0 0-1.456-.425c-.346-.003-.985.159-1.096.6-.313 1.223 2.239 1.803 1.677 3.98-.291 1.125-1.312 2.276-3.292 2.275-.717-.005-1.404-.143-2.059-.294l.289-2.065M205.846 51.238l-.459 1.79-2.973-.008-.39 1.514 3.538.006-.462 1.788-5.775-.007 2.156-8.346 5.773.013-.462 1.785-3.536-.008-.379 1.468 2.969.005M220.343 51.238l-.46 1.79-2.974-.008-.388 1.514 3.537.006-.462 1.788-5.777-.007 2.158-8.346 5.775.013-.459 1.785-3.543-.008-.378 1.468 2.971.005M162.456 51.23l-.466 1.79-2.702-.01-.855 3.302-2.236-.002 2.156-8.34 5.462.005-.463 1.79-3.226-.004-.376 1.464 2.706.006M197.791 47.966l2.241.004-2.157 8.342-2.24-.002 2.156-8.344M181.584 47.97l2.642.003 1.32 5.431h.024l1.404-5.425 1.962.004-2.157 8.342-2.61-.004-1.38-5.334h-.022l-1.383 5.33-1.954-.005 2.154-8.342M208.532 47.989l3.79.008c1.876.007 2.367.892 1.94 2.543-.25.99-1.012 1.704-2.098 2.114.199 1.25.368 2.566.597 3.69h-2.4c-.084-1.579-.163-3.168-.369-4.683.19.037.364.06.533.06.62 0 1.363-.271 1.573-1.083.23-.889-.463-.889-.78-.889l-1.103-.003-1.695 6.592-2.15-.002 2.162-8.347M164.93 47.97l3.791.005c1.872.004 2.37.896 1.94 2.544-.252.986-1.007 1.699-2.1 2.111.206 1.25.371 2.565.601 3.695l-2.403-.004c-.088-1.58-.165-3.17-.368-4.682.192.038.365.062.537.062.622.003 1.359-.272 1.566-1.082.233-.891-.46-.891-.776-.891l-1.103-.004-1.7 6.588-2.143-.002 2.157-8.34M189.985 47.997l6.661.01-.461 1.791-2.206-.005-1.693 6.552-2.238-.001 1.692-6.553-2.215-.003.46-1.791M221.233 54.146c.477.324 1.09.567 1.71.567.358 0 1.001-.063 1.155-.65.275-1.061-2.208-1.918-1.662-4.047.253-.975 1.21-2.16 3.17-2.156.635 0 1.263.102 1.826.243l-.264 1.972a2.818 2.818 0 0 0-1.458-.425c-.343-.003-.983.159-1.097.6-.311 1.223 2.242 1.803 1.678 3.98-.288 1.125-1.309 2.276-3.293 2.275-.71-.005-1.401-.143-2.057-.294l.292-2.065" fill="#FFF"/><g transform="translate(23.173 44.038)"><mask id="b" fill="#fff"><use xlink:href="#a"/></mask><path d="M153.026 3.811c-2.523-.005-4.65 1.547-5.364 4.31-.719 2.779.612 4.331 3.135 4.335 2.52.003 4.649-1.54 5.368-4.323.714-2.759-.614-4.317-3.139-4.322m.894 4.33c-.331 1.293-1.3 2.492-2.656 2.49-1.35 0-1.699-1.205-1.368-2.498.334-1.283 1.31-2.498 2.66-2.493 1.351.005 1.7 1.218 1.364 2.5" fill="#FFF" mask="url(#b)"/><path d="M3.245 19.08c.717-.415 2.326-1.267 2.518-1.377.304-.186.49-.162.497-.065.042.359.03 1.118.5 1.274.133.043.48-.12.546-.026.165.251.178.204.223.277.05.09.282.036.337.082.13.121-.01.271.066.352.118.13.342-.081.461-.057.206.042.258.271.22.423-.054.243.094.43.508.099.205-.172.218-.083.403-.172.108-.058.288-.055.365.023.077.079.2.21.312.254.171.06.35-.003.458.039.154.063.16.292.298.308.136.019.264-.24.346-.156.25.224-.198.61.107.694.172.052.238-.083.373-.1s.209-.175.329-.175c.115 0 .195.129.344.051.12-.063.211-.111.33-.176.154-.096.327-.05.421-.124.115-.093.026-.34.368-.281.344.068-.062.382.093.508.116.096.402.008.497-.029.188-.06.36-.288.428-.447.075-.19.36-.818.474-.985.116-.17.404-.837.56-1.062.153-.229.764-1.195.822-1.347.06-.151.279-.363.337-.476.057-.111.183-.493.335-.798.156-.304.576-.91.615-1.025.037-.111.36-.849.479-1.082.115-.226.517-.75.617-.992.091-.251.362-.77.362-.77l.286-.475s.098-.208.226-.494c.139-.286.54-.894.663-1.099.112-.21.44-.65.44-.65l.247-.545.193-.42s.15-.489.23-.624c.072-.133.344-.457.42-.627.08-.171.307-.933.428-1.159.105-.23.666-1.21.722-1.405.056-.19.636-1.214.692-1.42.055-.21.08-.494.157-.627.072-.136.303-.475.343-.57.037-.095.418-1.006.477-1.139s.1-.378.256-.378c.15 0 .261.161.36.303.114.161.35.133.476.269.136.133.581.603.597.679.023.076.271.097.332.171.054.077.092.262.169.301.078.04.46.302.535.419.076.114.173.34.271.419.097.079.538.342.594.453.058.115.69.873.769 1.006.079.136.135.36.191.457.056.093.29.228.307.322.017.099.043.436.092.531.06.094.33.21.367.302.036.097.152.455.212.515.056.055.174.132.212.208.037.076.077.494.135.57.057.076.248.4.305.535.056.132.247.375.284.47.043.093.06.475.1.609.035.134.213.417.23.492.02.076.057.303.057.303l.155.36s.17.36.17.495c0 .133.045.285.057.379.02.095.174.34.174.415 0 .082.212.517.212.517s-.039.376 0 .473c.04.094.21.358.21.458 0 .088-.055.341-.055.341l.097.15s-.064.208-.02.285c.035.074-.044.245.02.302.059.057.208.458.208.458-.115.134-8.118 3.79-11.548 5.38-4.946 2.281-15.222 7.377-16.319 8.004-1.09.625-1.782.988-2.046.854-.609-.313-1.595-1.18-2.272-3.04C.042 23.71.042 22.4.088 21.75c.037-.498-.003-.876.767-1.315.262-.156 1.674-.937 2.39-1.355" fill="#D9222A" mask="url(#b)"/></g><path d="M12.186 35.085c.037.088.205.064.328.098.073.018.198.138.28.148.075.008.189-.03.229 0 .125.092.105.22.174.335.08.111.123.301.236.338.113.038.27.02.307.134.038.114-.047.29.038.435.215.373.027 1.421.224 1.502.186.076.769-.11.966-.285.202-.184.496-.498.654-.568.297-.134.868-.442 1.146-.495.278-.055.423-.505.692-.534.271-.023.173-.235.369-.313.187-.075.546-.27.663-.154.052.051.164.2.337.264.208.079.437-.023.472.203.059.346.577.041.577.041s.636-.41.907-.521c.27-.118.984-.485.984-.485s.564-.29.8-.4c8.643-4.105 15.459-6.367 21.717-8.767 9.746-3.733 26.607-8.014 29.818-8.805.335-.083 1.084-.198 1.175-.254.093-.05.241-.087.32-.392.079-.301-.152-.72-.152-.872 0-.152.342-.758.38-1.026.043-.263-.229-.303-.229-.303s.037-.328-.034-.57c-.072-.239-.5-.455-.579-.643-.074-.19 0-.762-.074-.947-.079-.19-.31-.342-.31-.342s.055-.101 0-.267c-.054-.165-.23-.152-.23-.152s.068-.365.04-.495c-.032-.13-.233-.225-.233-.225s-.229-.152-.229-.307c0-.15-.036-.263-.154-.336-.118-.081-.457-.081-.572-.117-.122-.039-.383-.117-.575-.078-.192.04-.273.195-.802.303-.542.117-.771 0-1.003.043-.232.034-.502.193-.773.26-2.602.676-14.575 4.12-23.407 7.404-8.202 3.051-17.98 7.45-23.947 10.513-4.511 2.316-6.92 3.659-7.917 4.273-.518.31-1.082.685-1.168.832-.134.23-.292.585-.586.626-.368.05-.313.247-.426.275-.133.031-.293.175-.404.284-.123.106-.073.254-.029.342M49.457 29.79c-.402-.236-.263-.456.203-.654 2.852-1.207 10.06-3.75 14.198-5.047 3.528-1.107 13.277-4.249 15.99-5.019.656-.19.923-.183 1.207.12.737.777 1.457 1.816 2.127 3.11.627 1.193 1.161 2.92 1.372 4.005.153.794-.213.928-.653 1.122-3.015 1.338-10.457 4.562-13.553 6.004-3.032 1.414-8.563 4.046-10.433 4.98-.793.393-.664.555-1.199-.053-.162-.18-.422-.605-.496-.721-.085-.11-1.12-1.024-1.233-1.138-.114-.116-.69-.799-.842-.91-.154-.113-.65-.799-.809-.873-.156-.078-.413-.201-.525-.314-.116-.116-.319-.35-.434-.428-.114-.079-.375-.338-.375-.338l-.351-.328-.307-.341s-.27-.342-.46-.417c-.195-.075-.463-.377-.538-.493-.073-.114-.695-.874-1.003-1.063a35.112 35.112 0 0 1-1.192-.773c-.158-.117-.363-.236-.694-.431" fill="#D9222A"/><g><mask id="d" fill="#fff"><use xlink:href="#c"/></mask><path d="M60.439 40.187c-.292-.293.082-.333.422-.461 1.266-.481 8.773-2.808 15.309-4.51 6.518-1.692 15.948-3.63 17.35-3.908.591-.12.812-.03 1.112.445.347.557 1.067 2.39 1.344 3.874.356 1.875.014 3.796-.149 4.249-.144.384-.677.407-1.952.75-.76.206-4.013 1.031-5.342 1.41-1.538.445-5.599 1.605-7.1 2.112-1.858.627-4.298 1.422-4.298 1.422l-12.933.218s-.192-.862-.306-.94c-.114-.073-.309-.493-.42-.61-.123-.11-.272-.524-.272-.524s-.114-.458-.23-.537c-.114-.075-.395-.73-.507-.804-.117-.078-.375-.41-.491-.562-.116-.151-.18-.342-.372-.493-.192-.15-.432-.452-.584-.53-.159-.075-.284-.309-.581-.601M44.794 15.525c-.367.01-.69.005-.776-.102-.05-.06 0-.162-.085-.24-.095-.082-.272-.06-.334-.014-.057.043-.044.043-.173.084-.126.043-.618-.13-.793-.07-.173.056-.537.074-.656.013-.13-.063-.15-.392-.364-.48-.115-.05-.478-.243-.59-.445-.115-.2-.42-.494-.486-.639-.057-.143-.16-.366-.205-.486a2.214 2.214 0 0 0-.228-.44c-.075-.085-.169-.161-.248-.238-.076-.087-.135-.356-.213-.476a2.798 2.798 0 0 1-.173-.267c-.045-.091-.045-.198-.086-.3-.042-.105-.175-.257-.205-.358-.027-.095-.065-.766-.055-1.278.013-.513.004-.967.055-1.18.056-.205.163-.404.205-.614.041-.214.313-.91.384-1.239.074-.325.247-.939.336-1.153.086-.215.311-.781.43-.968.115-.185.55-.822.721-1.041.17-.21.962-.992 1.15-1.136.19-.14.626-.455.766-.556.08-.056.637-.443.817-.551.134-.085.347-.085.347-.085l.187-.188s.1-.113.198-.186c.102-.07.348-.07.348-.07s.277-.214.574-.155c.124.026.217-.201.332-.232.12-.029.534-.08.59-.029.057.06.128.13.363.173.23.046.426-.01.513.014.122.036.248.187.334.215.086.028 1.136.985 1.281 1.224.047.085.058.24.086.286.043.075.228.19.287.452.05.208.26.274.29.57.013.18.35.329.446.697.02.088.066.45.092.508.03.055.109.077.15.203.042.13.072.314.056.471-.014.155.279.74.246 1.098-.027.357-.102.739-.188 1.007-.087.27-.028.788-.087 1-.057.21-.214.724-.243.882-.026.153-.473 1.238-.55 1.35-.067.117-.322.603-.435.743-.115.145-1.003 1.365-1.158 1.523-.158.154-.558.451-.635.567-.104.16-.184.35-.3.53-.178.276-.417.071-.533.268-.162.267-.465.337-.52.497a1.355 1.355 0 0 1-.373.528c-.21.174-.667.304-.892.313M18.945 53.016s-3.784 1.264-5.293 1.795c-1.433.508-3.002 1.053-4.058 1.483-1.283.512-3.546 1.426-4.087 1.615-.84.29-1.202.12-1.43-.378-.232-.493-.775-1.524-1.081-2.737-.306-1.217-.422-2.223-.441-2.597-.015-.382.3-1.045.76-1.295.464-.252 1.56-.915 2.45-1.417 1.683-.961 7.496-4.026 10.958-5.795 3.667-1.874 9.447-4.65 12.56-6.167 3.106-1.515 8.21-3.908 8.828-4.175.61-.267 1.261-.572 1.568-.572.307 0 .191.153.191.269 0 .115-.107.161-.143.392-.038.222-.006.479-.084.712-.08.225-.278.441-.317.59-.04.156-.069.697-.215.886-.159.192-.706 1.242-.82 1.736-.118.492-.377 1.303-.493 1.492-.112.187-.476.9-.518 1.126-.037.229-.286.771-.362 1-.078.228-.533 1.07-.614 1.225-.077.148-.383 1.162-.464 1.32-.075.149-.38.604-.38.604l-.15.641s-.428.611-.428.722c0 .117-.304 1.14-.462 1.37-.15.228-.882 1.86-1.034 2.428a26.19 26.19 0 0 1-.494 1.594c-.08.19-.503.876-.578 1.1-.08.23-.422 1.364-.542 1.594-.112.227-.421.876-.421 1.1 0 .229-.227.722-.416 1.14-.195.42-.427 1.138-.542 1.404-.115.264-.269.452-.304.601-.045.152-.08.575-.118.691-.036.116-.112.302-.112.302-.198.091-10.519 4.478-11.975 5.16-1.462.687-11.934 5.59-12.583 5.9-.656.305-1.522.961-2.156.54-.825-.555-1.612-1.721-2.148-2.755-.445-.865-.926-2.306-1-3.337-.087-1.31.464-1.553 2.411-2.66.946-.552 8.484-4.477 10.896-5.717.69-.35 5.641-2.93 5.641-2.93" fill="#D9222A" mask="url(#d)"/></g></g></svg>